<?xml version="1.0" standalone="no"?>
<!DOCTYPE svg PUBLIC "-//W3C//DTD SVG 20010904//EN"
 "http://www.w3.org/TR/2001/REC-SVG-20010904/DTD/svg10.dtd">
<svg version="1.0" xmlns="http://www.w3.org/2000/svg"
 width="420.000000pt" height="420.000000pt" viewBox="0 0 420.000000 420.000000"
 preserveAspectRatio="xMidYMid meet">

<g transform="translate(0.000000,420.000000) scale(0.100000,-0.100000)"
fill="#000000" stroke="none">
<path d="M480 3360 l0 -840 -64 0 c-59 0 -65 -2 -68 -22 -2 -19 -10 -24 -45
-26 -35 -3 -43 -7 -43 -23 0 -12 -10 -23 -25 -29 -14 -5 -25 -16 -25 -24 0 -7
-9 -16 -20 -19 -12 -3 -20 -14 -20 -25 0 -14 -8 -22 -23 -24 -14 -2 -23 -11
-25 -25 -2 -15 -10 -23 -23 -23 -16 0 -19 -7 -19 -50 0 -43 -3 -50 -20 -50
-17 0 -20 -7 -20 -41 0 -32 -4 -42 -20 -46 -19 -5 -20 -14 -20 -173 0 -159 1
-168 20 -173 18 -5 20 -14 20 -76 0 -64 2 -71 20 -71 13 0 20 -7 20 -20 0 -12
7 -20 16 -20 9 0 18 -9 21 -21 3 -11 16 -25 29 -30 14 -5 24 -17 24 -29 0 -13
7 -20 19 -20 13 0 21 -8 23 -23 2 -14 11 -23 26 -25 14 -2 22 -10 22 -24 0
-11 8 -22 19 -25 11 -3 21 -15 23 -27 3 -19 10 -21 71 -24 58 -3 67 -5 67 -22
0 -18 9 -20 108 -22 101 -3 107 -4 110 -25 2 -14 11 -23 25 -25 14 -2 23 -11
25 -25 3 -23 3 -23 245 -25 l242 -3 3 -47 c3 -39 7 -48 22 -48 12 0 20 -8 22
-22 3 -20 9 -23 43 -23 34 0 41 4 43 22 2 14 11 23 25 25 19 3 22 10 25 51 l3
47 85 0 84 0 0 -315 c0 -308 0 -315 -20 -315 -13 0 -20 -7 -20 -20 0 -13 -10
-24 -25 -30 -14 -5 -24 -15 -23 -22 2 -7 -7 -17 -19 -23 -22 -9 -23 -15 -23
-123 0 -112 0 -113 26 -122 14 -6 22 -14 19 -20 -3 -6 5 -14 19 -20 16 -6 26
-17 26 -30 0 -13 7 -20 19 -20 13 0 21 -8 23 -22 2 -15 11 -24 26 -26 17 -3
22 -10 22 -33 l0 -29 90 0 90 0 0 30 c0 23 5 30 19 30 13 0 21 8 23 23 2 14
11 23 26 25 14 2 22 10 22 24 0 11 8 22 20 25 11 3 20 13 20 23 0 12 9 20 23
22 21 3 22 7 25 120 3 115 2 117 -20 120 -15 2 -24 11 -26 26 -2 14 -10 22
-23 22 -12 0 -19 7 -19 20 0 13 -10 24 -25 30 l-25 10 2 307 3 308 445 5 445
5 3 408 2 407 85 0 84 0 3 68 3 67 155 5 c151 5 155 6 158 27 3 21 8 22 110
25 102 3 107 4 110 26 3 19 9 22 48 22 40 0 44 2 44 24 0 18 6 25 23 28 12 2
23 9 23 16 1 6 2 17 3 22 0 6 10 10 21 10 14 0 20 7 20 21 0 12 8 23 20 26 11
3 20 13 20 23 0 12 9 20 23 22 19 3 22 10 25 51 3 38 7 47 22 47 12 0 20 8 22
23 2 14 11 23 26 25 16 3 22 10 22 28 0 22 4 24 45 24 39 0 45 3 45 21 0 12 8
23 20 26 11 3 20 14 20 24 0 16 8 19 45 19 38 0 45 -3 45 -20 0 -18 7 -20 66
-20 57 0 67 3 71 20 3 13 14 20 29 20 24 0 24 1 24 100 l0 100 -25 0 c-23 0
-25 4 -25 45 0 41 2 45 25 45 24 0 25 2 25 75 0 73 -1 75 -24 75 -18 0 -25 6
-28 23 -2 14 -11 23 -25 25 -15 2 -23 10 -23 22 0 15 -9 19 -42 22 l-43 3 -3
48 c-3 38 -7 47 -22 47 -12 0 -20 8 -22 23 -2 14 -11 23 -25 25 -17 3 -23 10
-23 28 0 23 -3 24 -65 24 -62 0 -65 -1 -65 -24 0 -18 -6 -25 -22 -28 -15 -2
-24 -11 -26 -25 -2 -15 -10 -23 -23 -23 -13 0 -19 -7 -19 -21 0 -13 -8 -23
-21 -26 -11 -3 -25 -17 -30 -30 -11 -29 -33 -26 -37 5 -2 14 -11 22 -23 22
-10 0 -20 5 -20 10 -1 6 -2 16 -3 23 -1 8 -28 13 -88 15 l-88 3 0 -96 c0 -88
1 -95 20 -95 17 0 20 -7 20 -50 0 -43 -3 -50 -20 -50 -19 0 -20 -7 -20 -120 0
-113 1 -120 20 -120 18 0 20 -7 20 -69 0 -60 -2 -69 -20 -74 -12 -3 -20 -14
-20 -26 0 -18 -7 -20 -67 -23 -62 -3 -68 -5 -71 -26 l-3 -22 -177 2 -177 3 -3
813 -2 812 -1205 0 -1205 0 0 -840z m2370 -20 l0 -820 199 0 c199 0 200 0 203
23 3 20 9 22 71 25 64 3 67 4 67 27 0 18 5 25 20 25 13 0 20 7 20 20 0 13 10
24 25 30 25 10 26 12 23 97 -3 83 -4 88 -25 91 -22 3 -23 8 -23 97 0 89 1 94
23 97 19 3 22 9 22 48 0 39 -3 45 -22 48 -21 3 -23 8 -23 73 l0 70 68 -3 c52
-2 67 -6 67 -18 0 -8 10 -19 23 -25 20 -9 22 -17 22 -77 0 -61 2 -68 19 -68
17 0 20 8 23 48 3 40 6 47 26 50 19 3 22 9 22 48 0 37 3 44 20 44 13 0 20 7
20 20 0 13 10 24 25 30 15 6 25 17 25 30 0 18 6 20 64 20 59 0 65 -2 68 -22 2
-15 11 -24 26 -26 19 -3 22 -9 22 -48 0 -38 -3 -44 -25 -50 -16 -4 -25 -13
-25 -25 0 -17 8 -19 90 -19 89 0 90 0 90 -24 0 -18 6 -25 23 -28 20 -3 22 -8
22 -73 l0 -70 -88 -3 c-83 -3 -88 -4 -85 -24 3 -19 10 -21 63 -22 54 -1 60 -3
63 -23 2 -14 11 -23 25 -25 21 -3 22 -8 22 -98 l0 -95 -65 0 c-60 0 -65 2 -68
23 -3 19 -9 22 -48 22 -38 0 -44 -3 -44 -21 0 -12 -8 -23 -20 -26 -11 -3 -20
-14 -20 -24 0 -14 -9 -19 -42 -21 -36 -2 -44 -7 -46 -25 -3 -20 -9 -23 -48
-23 l-44 0 0 -50 c0 -47 -2 -50 -25 -50 -23 0 -25 -3 -25 -50 0 -43 -3 -50
-20 -50 -13 0 -20 -7 -20 -20 0 -23 -35 -28 -43 -6 -7 18 1 26 25 26 15 0 18
8 18 50 0 43 3 50 20 50 15 0 20 7 20 25 0 22 -4 25 -39 25 -43 0 -55 9 -45
34 5 12 21 16 70 16 58 0 64 2 64 20 0 13 -10 24 -25 30 -14 5 -25 16 -25 25
0 11 -11 15 -40 15 -22 0 -41 5 -41 10 -1 6 -2 16 -3 23 0 6 -11 13 -23 15
-21 3 -23 -1 -23 -42 0 -31 4 -46 13 -46 19 0 36 -20 30 -36 -4 -10 -24 -14
-69 -14 -62 0 -64 -1 -64 -25 0 -18 -5 -25 -20 -25 -17 0 -20 -7 -20 -50 0
-43 3 -50 20 -50 18 0 20 -7 20 -70 l0 -70 45 0 c39 0 45 3 45 20 0 11 7 23
15 27 19 7 22 4 27 -22 2 -14 -3 -21 -19 -23 -17 -3 -23 -10 -23 -28 0 -22 -4
-24 -45 -24 -41 0 -45 -2 -45 -25 l0 -25 -109 0 c-106 0 -110 -1 -113 -22 -3
-23 -5 -23 -180 -26 l-178 -2 0 -70 0 -69 -87 -3 -88 -3 -3 -407 -2 -408 -670
0 -670 0 0 -76 0 -75 -42 3 -43 3 -3 47 c-3 39 -7 48 -22 48 -15 0 -19 9 -22
48 -3 40 -6 47 -25 50 -19 3 -23 -1 -23 -22 l0 -26 -219 0 -220 0 -3 43 -3 42
-132 3 -133 3 0 24 c0 23 -4 24 -67 27 -62 3 -68 5 -71 26 -2 14 -10 22 -23
22 -13 0 -19 7 -19 24 0 18 -6 25 -22 28 -15 2 -24 11 -26 25 -2 15 -10 23
-23 23 -14 0 -19 7 -19 25 0 18 5 25 19 25 10 0 21 9 24 20 3 12 14 20 26 20
19 0 21 6 21 50 0 43 3 50 19 50 13 0 21 8 23 23 2 14 11 23 26 25 34 5 31 52
-3 52 -24 0 -25 2 -25 70 l0 70 -65 0 c-63 0 -65 1 -65 25 0 23 -4 25 -45 25
l-45 0 0 -120 c0 -113 1 -120 20 -120 18 0 20 -7 20 -75 0 -73 1 -75 25 -75
18 0 25 -5 25 -19 0 -10 -6 -21 -14 -24 -15 -6 -36 11 -36 29 0 6 -9 14 -20
17 -18 5 -20 14 -20 76 0 64 -2 71 -20 71 -18 0 -19 9 -22 154 -4 179 -3 186
23 186 16 0 19 7 19 45 0 38 3 45 19 45 17 0 20 8 23 48 3 40 6 47 26 50 16 3
22 10 22 28 0 17 6 24 19 24 13 0 21 8 23 23 2 14 11 23 26 25 18 3 22 -1 22
-22 0 -21 -5 -26 -25 -26 -20 0 -25 -5 -25 -25 0 -18 -5 -25 -19 -25 -17 0
-20 -8 -23 -47 -3 -41 -6 -48 -25 -51 -21 -3 -23 -9 -23 -68 0 -60 2 -65 25
-74 15 -6 25 -17 25 -30 0 -18 6 -20 64 -20 59 0 65 2 68 23 2 14 11 23 26 25
14 2 22 10 22 24 0 11 8 22 20 25 16 4 20 14 20 49 0 37 -3 44 -20 44 -17 0
-20 7 -20 49 0 44 -3 50 -23 53 -18 2 -23 10 -25 47 -3 33 -8 44 -23 48 -10 3
-19 14 -19 24 0 16 8 19 45 19 41 0 45 2 45 25 0 24 2 25 66 25 62 0 65 -1 62
-22 -3 -21 -9 -23 -65 -26 l-63 -3 0 -69 c0 -63 2 -70 20 -70 17 0 20 -7 20
-50 l0 -50 45 0 c39 0 45 -3 45 -21 0 -12 -8 -23 -20 -26 -11 -3 -20 -13 -20
-23 0 -10 9 -20 20 -23 12 -3 20 -14 20 -25 0 -14 8 -22 23 -24 14 -2 23 -11
25 -25 3 -21 9 -23 68 -23 l64 0 0 -120 0 -120 -90 0 c-90 0 -90 0 -90 -25 l0
-26 113 3 112 3 0 165 0 165 -87 3 -88 3 0 1059 0 1060 1160 0 1160 0 0 -820z
m-1070 -2485 l0 -215 -90 0 -90 0 0 215 0 215 90 0 90 0 0 -215z m-2 -292 c2
-15 10 -23 23 -23 14 0 19 -7 19 -25 0 -20 5 -25 25 -25 18 0 25 -5 25 -19 0
-11 -4 -22 -9 -25 -16 -10 -41 5 -41 24 0 10 -9 20 -20 23 -12 3 -20 14 -20
26 0 20 -5 21 -89 21 -85 0 -90 -1 -93 -22 -2 -15 -11 -24 -25 -26 -14 -2 -23
-11 -25 -25 -4 -29 -32 -28 -36 1 -3 16 2 22 17 22 13 0 21 8 23 23 2 14 11
23 26 25 16 3 22 10 22 28 0 25 0 25 88 22 82 -3 87 -4 90 -25z m-268 -244 c0
-112 1 -119 20 -119 13 0 20 -7 20 -20 0 -13 -7 -20 -20 -20 -13 0 -20 7 -20
20 0 13 -7 20 -19 20 -26 0 -29 13 -29 126 0 100 8 127 34 117 11 -4 14 -30
14 -124z m400 0 c0 -112 -1 -119 -20 -119 -13 0 -20 -7 -20 -19 0 -11 -6 -21
-12 -24 -21 -7 -38 4 -38 24 0 14 7 19 25 19 l25 0 0 119 c0 115 6 139 33 124
4 -2 7 -58 7 -124z m-180 102 c0 -13 8 -21 23 -23 20 -3 22 -9 25 -71 3 -63 1
-68 -21 -76 -13 -5 -27 -19 -30 -31 -5 -18 -12 -21 -44 -18 -31 2 -39 7 -41
26 -2 14 -10 22 -23 22 -17 0 -19 8 -19 71 0 62 2 71 20 76 11 3 20 14 20 24
0 16 8 19 45 19 38 0 45 -3 45 -19z m-132 -289 c3 -21 8 -22 92 -22 84 0 89 1
92 23 2 12 10 22 18 22 8 0 16 -10 18 -22 3 -18 -2 -23 -17 -23 -16 0 -21 -6
-21 -25 0 -25 -1 -25 -90 -25 -89 0 -90 0 -90 25 0 18 -5 25 -19 25 -24 0 -35
15 -27 36 9 23 40 13 44 -14z"/>
<path d="M570 3100 l0 -1009 88 -3 87 -3 3 -167 2 -168 45 0 c41 0 45 2 45 25
0 18 5 25 20 25 23 0 28 35 6 43 -18 7 -26 -1 -26 -25 0 -14 -6 -19 -22 -16
-19 2 -24 10 -26 41 -3 32 0 38 22 47 16 6 26 17 26 30 0 13 7 20 20 20 17 0
20 -7 20 -50 l0 -50 40 0 c34 0 42 4 50 25 8 21 16 24 72 27 57 3 63 5 66 26
3 20 9 22 67 22 58 0 64 2 67 22 3 21 8 23 68 23 l65 0 3 -59 c3 -58 -6 -81
-31 -81 -7 0 -13 -10 -15 -22 -3 -21 -9 -23 -68 -23 -62 0 -64 -1 -64 -25 0
-24 2 -25 65 -25 63 0 65 -1 65 -25 0 -23 4 -25 45 -25 l45 0 0 -45 c0 -40 3
-47 26 -55 14 -6 23 -14 20 -19 -8 -12 21 -34 34 -26 5 3 10 37 10 75 0 64 -2
69 -22 72 -13 2 -24 9 -24 16 -1 6 -2 17 -3 22 0 6 -10 10 -22 10 -15 0 -20 5
-17 23 3 20 9 22 66 25 57 3 62 1 62 -18 0 -13 9 -24 25 -30 15 -6 25 -17 25
-30 0 -13 7 -20 20 -20 19 0 20 -7 20 -94 0 -85 -2 -94 -20 -99 -12 -3 -20
-14 -20 -25 0 -14 -8 -22 -22 -24 -15 -2 -24 -11 -26 -25 -3 -21 -9 -23 -68
-23 -62 0 -64 1 -64 25 0 33 -37 35 -42 3 -2 -15 -11 -24 -25 -26 -14 -2 -23
-11 -25 -25 -2 -18 -11 -23 -45 -25 -40 -3 -43 -2 -43 23 l0 26 -87 -3 c-83
-3 -88 -4 -91 -25 -3 -23 -5 -23 -158 -23 l-154 0 0 25 c0 24 2 25 65 25 l65
0 0 71 c0 62 -2 71 -20 76 -18 5 -20 14 -20 74 l0 69 -44 0 c-39 0 -45 -3 -48
-22 -3 -21 -9 -23 -65 -26 l-63 -3 0 -144 0 -145 65 0 65 0 0 -45 0 -45 200 0
200 0 0 45 0 45 45 0 c39 0 45 -3 45 -20 0 -13 10 -24 25 -30 21 -8 25 -16 25
-50 0 -33 3 -40 19 -40 13 0 21 8 23 23 l3 22 647 3 648 2 2 408 3 407 85 5
85 5 0 1005 0 1005 -1117 3 -1118 2 0 -1010z m628 628 l-3 -93 -132 -3 -133
-3 0 96 0 95 135 0 136 0 -3 -92z m310 0 l-3 -93 -130 0 -130 0 -3 93 -3 92
136 0 136 0 -3 -92z m312 -3 l0 -96 -132 3 -133 3 -3 79 c-2 44 -1 85 2 93 4
10 36 13 136 13 l130 0 0 -95z m315 0 l0 -90 -132 -3 -133 -3 0 96 0 96 133
-3 132 -3 0 -90z m313 3 l-3 -93 -132 -3 -133 -3 0 96 0 95 135 0 136 0 -3
-92z m-1250 -265 l-3 -118 -132 -3 -133 -3 0 121 0 120 135 0 136 0 -3 -117z
m310 0 l-3 -118 -130 0 -130 0 -3 118 -3 117 136 0 136 0 -3 -117z m312 -3 l0
-121 -132 3 -133 3 -3 104 c-1 58 0 111 2 118 4 10 37 13 136 13 l130 0 0
-120z m318 20 c5 -150 14 -140 -138 -140 l-130 0 0 120 0 121 133 -3 132 -3 3
-95z m310 -17 l-3 -118 -130 0 -130 0 -3 118 -3 117 136 0 136 0 -3 -117z
m-1253 -293 l0 -115 -132 -3 -133 -3 0 121 0 121 133 -3 132 -3 0 -115z m313
3 l-3 -118 -130 0 -130 0 -3 118 -3 117 136 0 136 0 -3 -117z m312 -3 l0 -121
-132 3 -133 3 -3 104 c-1 58 0 111 2 118 4 10 37 13 136 13 l130 0 0 -120z
m313 5 c-2 -60 -3 -113 -3 -117 0 -5 -58 -8 -130 -8 l-130 0 0 120 0 121 132
-3 133 -3 -2 -110z m315 -2 l-3 -118 -130 0 -130 0 -3 118 -3 117 136 0 136 0
-3 -117z m-1250 -290 l-3 -118 -130 0 -130 0 -3 118 -3 117 136 0 136 0 -3
-117z m310 0 l-3 -118 -130 0 -130 0 -3 118 -3 117 136 0 136 0 -3 -117z m312
-3 l0 -121 -132 3 -133 3 -3 104 c-1 58 0 111 2 118 4 10 37 13 136 13 l130 0
0 -120z m315 0 l0 -115 -132 -3 -133 -3 0 121 0 121 133 -3 132 -3 0 -115z
m313 3 l-3 -118 -130 0 -130 0 -3 118 -3 117 136 0 136 0 -3 -117z m-1430
-340 c3 -18 11 -22 45 -25 l42 -3 0 -45 c0 -38 -3 -45 -20 -45 -13 0 -21 8
-23 23 -2 14 -10 22 -23 22 -14 0 -19 7 -19 25 0 25 -1 25 -90 25 -89 0 -90 0
-90 -25 0 -18 5 -25 20 -25 15 0 20 -7 20 -25 0 -20 5 -25 25 -25 20 0 25 5
25 25 0 18 5 25 20 25 15 0 20 -7 20 -25 0 -20 5 -25 25 -25 18 0 25 -5 25
-20 0 -15 -7 -20 -25 -20 -20 0 -25 -5 -25 -25 0 -18 -5 -25 -20 -25 -15 0
-20 -7 -20 -26 0 -21 -4 -25 -22 -22 -15 2 -24 11 -26 26 -5 32 -42 30 -42 -3
0 -18 -5 -25 -19 -25 -11 0 -22 4 -25 9 -10 16 5 41 25 41 14 0 19 7 19 25 0
19 -5 25 -21 25 -12 0 -23 8 -26 20 -3 11 -14 20 -24 20 -17 0 -19 -9 -19 -95
0 -87 2 -95 19 -95 12 0 21 -9 25 -25 4 -16 13 -25 27 -25 15 0 20 -5 17 -22
-3 -20 -9 -23 -43 -23 l-40 0 -3 48 c-3 39 -6 47 -23 47 -17 0 -19 8 -19 95 0
88 1 95 20 95 17 0 20 7 20 50 l0 50 45 0 c42 0 45 2 45 25 l0 26 88 -3 c81
-3 87 -5 90 -25z m442 -85 c0 -5 0 -57 0 -118 l0 -110 -85 0 -85 0 0 120 0
121 85 -3 c47 -2 85 -6 85 -10z m228 -105 l-3 -118 -87 -3 -88 -3 0 121 0 120
90 0 91 0 -3 -117z m222 -3 l0 -121 -87 3 -88 3 -3 104 c-1 58 0 111 2 118 4
9 29 13 91 13 l85 0 0 -120z m228 20 c4 -145 8 -140 -93 -140 l-85 0 0 120 0
121 88 -3 87 -3 3 -95z m-988 -45 c0 -87 -2 -95 -19 -95 -17 0 -20 -8 -23 -47
l-3 -48 -42 -3 c-34 -2 -43 -7 -43 -21 0 -10 9 -21 20 -24 16 -4 20 -14 20
-51 0 -39 -3 -46 -19 -46 -13 0 -21 -8 -23 -22 -2 -19 -10 -24 -45 -26 l-43
-3 0 50 0 51 45 0 c41 0 45 2 45 25 0 25 -1 25 -90 25 -83 0 -90 1 -90 20 0
19 7 20 90 20 89 0 90 0 90 25 0 18 5 25 19 25 13 0 21 8 23 23 2 14 11 23 26
25 21 3 22 8 22 98 0 87 1 94 20 94 19 0 20 -7 20 -95z m808 -547 c2 -12 -6
-21 -22 -28 -16 -6 -26 -17 -26 -30 0 -13 -7 -20 -20 -20 -18 0 -20 -7 -20
-68 0 -38 3 -71 6 -75 11 -11 34 5 34 23 0 12 9 20 23 22 14 2 23 11 25 26 2
14 10 22 23 22 14 0 19 7 19 26 0 21 4 25 23 22 21 -3 22 -8 25 -91 3 -85 2
-87 -23 -97 -15 -6 -25 -17 -25 -30 0 -13 -7 -20 -19 -20 -13 0 -21 -8 -23
-22 -3 -21 -8 -23 -68 -23 -60 0 -65 2 -68 23 -2 14 -10 22 -23 22 -12 0 -19
7 -19 20 0 13 -10 24 -25 30 -24 9 -25 13 -25 95 0 82 1 86 25 95 15 6 25 17
25 30 0 13 7 20 20 20 13 0 20 7 20 18 0 29 10 33 74 30 49 -2 61 -7 64 -20z
m400 -5 c2 -15 10 -23 23 -23 12 0 19 -7 19 -20 0 -13 10 -24 25 -30 24 -9 25
-13 25 -99 0 -85 -1 -90 -22 -93 -15 -2 -24 -11 -26 -25 -2 -15 -10 -23 -22
-23 -12 0 -20 -8 -22 -22 -3 -21 -8 -23 -68 -23 -60 0 -65 2 -68 23 -2 14 -10
22 -23 22 -12 0 -19 7 -19 20 0 11 -8 24 -17 27 -26 9 -34 25 -21 41 8 9 34
13 87 11 l76 -2 3 46 3 47 -85 0 c-85 0 -86 0 -86 25 0 18 5 25 20 25 14 0 20
7 20 21 0 12 8 23 19 26 11 3 22 16 25 29 6 24 10 25 69 22 56 -3 62 -5 65
-25z"/>
<path d="M797 2463 c-4 -3 -7 -15 -7 -25 0 -13 7 -18 25 -18 18 0 25 -5 25
-20 0 -13 7 -20 20 -20 15 0 20 -7 20 -25 0 -20 5 -25 25 -25 20 0 25 5 25 25
0 18 5 25 20 25 13 0 20 7 20 20 0 13 -7 20 -20 20 -13 0 -20 -7 -20 -20 0
-15 -7 -20 -25 -20 -18 0 -25 5 -25 20 0 13 -7 20 -20 20 -15 0 -20 7 -20 25
0 18 -5 25 -18 25 -10 0 -22 -3 -25 -7z"/>
<path d="M3250 2495 c0 -24 -2 -25 -65 -25 l-65 0 0 -44 c0 -35 4 -45 20 -49
16 -4 19 -15 22 -73 3 -63 5 -69 26 -72 18 -3 22 1 22 22 l0 26 110 0 110 0 0
25 c0 18 -5 25 -20 25 -18 0 -20 7 -20 69 0 65 -2 70 -22 73 -15 2 -24 11 -26
26 -3 19 -9 22 -48 22 -40 0 -44 -2 -44 -25z"/>
<path d="M2850 2350 l0 -121 133 3 132 3 3 73 c3 71 3 72 -23 72 -23 0 -25 3
-25 45 l0 45 -110 0 -110 0 0 -120z"/>
<path d="M390 2065 c0 -18 -5 -25 -20 -25 -19 0 -20 -7 -20 -120 0 -113 1
-120 20 -120 15 0 20 -7 20 -25 0 -18 -5 -25 -19 -25 -13 0 -21 -8 -23 -22 -2
-15 -11 -24 -25 -26 -20 -3 -23 -9 -23 -53 0 -42 -3 -49 -20 -49 -13 0 -20 -7
-20 -20 0 -15 -7 -20 -25 -20 -34 0 -37 -47 -2 -52 14 -2 23 -11 25 -25 2 -15
10 -23 23 -23 14 0 19 -7 19 -25 0 -23 3 -24 68 -27 61 -3 67 -5 70 -25 3 -21
9 -23 68 -23 l64 0 0 144 0 145 -42 3 c-35 2 -44 7 -46 25 -3 18 -11 22 -45
25 -35 2 -43 7 -45 26 -3 20 1 22 43 22 42 0 46 2 43 23 -2 18 -10 23 -45 25
l-43 3 0 115 c0 113 0 115 25 124 15 6 25 17 25 30 0 15 -7 20 -25 20 -20 0
-25 -5 -25 -25z"/>
<path d="M1202 1578 c2 -18 10 -22 43 -22 34 -1 41 -5 43 -23 3 -19 10 -23 42
-23 21 0 42 5 45 10 11 18 -16 40 -50 40 -24 0 -34 5 -38 20 -4 16 -14 20 -47
20 -37 0 -41 -2 -38 -22z"/>
</g>
</svg>
