<?xml version="1.0" standalone="no"?>
<!DOCTYPE svg PUBLIC "-//W3C//DTD SVG 20010904//EN"
 "http://www.w3.org/TR/2001/REC-SVG-20010904/DTD/svg10.dtd">
<svg version="1.0" xmlns="http://www.w3.org/2000/svg"
 width="510.000000pt" height="510.000000pt" viewBox="0 0 510.000000 510.000000"
 preserveAspectRatio="xMidYMid meet">
<metadata>
Created by potrace 1.16, written by Peter Selinger 2001-2019
</metadata>
<g transform="translate(0.000000,510.000000) scale(0.100000,-0.100000)"
fill="#000000" stroke="none">
<path d="M4067 4768 c-16 -12 -16 -32 -7 -237 7 -163 13 -227 22 -233 17 -10
79 -10 96 1 9 6 15 67 22 232 11 255 13 249 -70 249 -25 0 -54 -6 -63 -12z"/>
<path d="M3439 4576 c-2 -2 -76 -6 -164 -10 -88 -4 -190 -10 -227 -14 -39 -5
-75 -4 -84 1 -12 7 -15 6 -10 -2 4 -6 1 -11 -6 -11 -22 0 -278 -29 -348 -40
-36 -5 -96 -14 -135 -20 -46 -7 -155 -9 -320 -5 -454 12 -652 2 -897 -49 -130
-26 -197 -64 -243 -134 -21 -33 -24 -52 -29 -187 -4 -82 -7 -195 -7 -251 0
-70 -5 -110 -16 -130 -11 -22 -15 -70 -18 -190 -1 -88 -5 -170 -9 -181 -7 -22
-52 -42 -151 -67 -66 -17 -358 -111 -390 -126 -11 -6 -51 -19 -90 -31 -63 -19
-117 -43 -153 -67 -10 -7 -9 -15 4 -40 24 -50 59 -54 488 -58 186 -2 341 -5
343 -8 2 -2 6 -41 8 -87 3 -46 7 -95 10 -108 5 -27 -1 -34 -75 -91 -63 -48
-136 -126 -161 -171 -23 -42 -17 -234 10 -331 38 -134 43 -150 58 -178 7 -14
13 -29 13 -33 0 -12 75 -138 99 -167 83 -98 96 -103 277 -99 l142 4 56 -56
c30 -31 61 -59 69 -62 8 -3 42 -25 76 -49 l61 -43 -4 -199 c-4 -219 -5 -217
58 -244 47 -21 191 2 225 35 10 11 12 30 7 81 -4 37 -10 92 -12 122 -3 30 -7
61 -9 68 -8 24 110 -18 132 -47 18 -24 16 -31 -10 -31 -13 0 -32 -8 -41 -19
-16 -17 -16 -21 5 -56 l23 -38 -24 -43 c-17 -33 -38 -52 -79 -75 -31 -18 -91
-54 -134 -82 -74 -48 -78 -52 -74 -81 2 -17 10 -45 17 -62 12 -29 11 -37 -18
-97 -18 -36 -38 -70 -45 -74 -7 -4 -21 -28 -31 -53 -10 -25 -24 -58 -31 -75
-12 -28 -28 -79 -54 -170 -19 -68 -18 -86 9 -106 34 -26 219 -47 390 -45 90 1
128 -2 135 -11 12 -16 12 -16 255 -13 152 1 200 5 220 16 20 12 39 13 90 7 44
-6 99 -4 168 5 97 13 105 13 164 -7 49 -17 80 -20 158 -18 103 4 185 29 176
54 -7 17 95 11 171 -11 56 -16 190 -13 207 5 6 5 19 9 29 9 26 0 88 47 119 89
14 20 37 65 52 99 24 60 25 67 15 150 -6 48 -15 95 -20 105 -6 9 -7 17 -5 17
7 0 -59 183 -85 237 -11 23 -35 56 -52 73 -18 17 -43 42 -57 55 -14 14 -31 25
-37 25 -6 0 -21 19 -33 42 -12 23 -29 48 -38 55 -10 7 -13 13 -7 13 5 0 -16
18 -48 41 -31 22 -57 44 -57 49 0 5 21 16 48 26 58 23 159 88 209 137 43 41
63 64 63 71 0 3 14 34 30 68 17 34 33 80 37 101 3 20 19 54 35 75 58 72 61 83
73 312 2 53 12 134 21 180 9 47 18 94 19 105 1 11 3 20 5 20 1 0 3 20 5 45 1
25 6 88 9 140 12 157 5 420 -12 512 l-9 47 54 7 c30 3 85 7 123 8 39 0 70 3
70 6 0 3 16 7 37 8 20 2 40 5 44 7 4 3 19 1 33 -5 14 -5 26 -6 26 -1 0 10 65
19 180 26 41 3 148 17 238 33 190 33 208 43 191 105 -5 20 -18 41 -27 46 -18
9 -180 37 -267 46 -27 3 -79 10 -115 15 -36 5 -83 12 -105 15 -22 3 -69 10
-105 15 -36 5 -77 10 -92 10 l-27 0 5 -72 c6 -64 4 -76 -14 -98 -18 -22 -28
-25 -92 -25 -64 0 -74 3 -91 24 -18 22 -19 35 -13 167 4 88 3 144 -2 144 -5 0
-10 8 -11 18 -3 32 -9 77 -17 119 l-8 41 -77 -91 c-144 -172 -200 -227 -234
-227 -36 0 -92 40 -110 78 -26 56 -12 86 76 160 39 33 110 92 157 131 46 39
93 71 104 71 11 0 31 -10 44 -22 23 -22 24 -22 19 -3 -10 38 -26 145 -32 215
-3 38 -23 80 -38 80 -28 0 -311 240 -333 281 -20 39 -18 53 11 87 14 17 25 33
25 36 0 6 -154 9 -161 2z m385 -455 c59 -10 76 -30 76 -87 0 -67 -22 -85 -116
-95 -113 -11 -372 -11 -394 1 -45 24 -50 140 -8 182 20 20 27 21 207 14 102
-3 208 -10 235 -15z m-2188 -363 c16 -13 34 -26 39 -30 6 -4 36 -32 69 -61
l59 -54 -49 -28 c-27 -15 -74 -45 -104 -66 -55 -36 -56 -36 -85 -21 -35 19
-152 24 -260 11 -38 -4 -92 -11 -120 -14 -27 -3 -79 -12 -113 -20 -35 -9 -68
-13 -72 -10 -10 6 -8 201 2 211 4 3 24 8 45 9 21 2 56 6 78 9 102 13 218 25
299 32 70 5 97 12 124 30 43 30 52 30 88 2z m2286 -751 c8 -75 -1 -511 -11
-542 -7 -22 -10 -24 -10 -10 -1 12 -10 38 -21 60 -23 45 -23 45 -10 45 5 0 12
-11 16 -25 12 -47 19 -25 16 50 -4 76 -22 107 -22 36 0 -55 -20 -57 -71 -8
-24 22 -36 38 -26 34 11 -4 16 -3 12 4 -4 5 -14 9 -23 8 -10 -1 -37 7 -62 19
l-45 21 65 -1 c36 0 84 3 108 7 l42 7 0 68 c0 38 -4 72 -10 75 -5 3 -10 22
-10 41 0 19 -4 34 -10 34 -5 0 -10 4 -10 8 0 5 13 7 29 4 26 -3 29 -1 35 31
10 52 -1 70 -38 63 -83 -14 -186 -18 -186 -7 0 7 28 11 83 11 45 0 88 4 95 9
7 4 24 6 37 4 19 -4 24 -12 27 -46z m-849 -54 c7 -68 15 -213 22 -412 3 -80 8
-147 10 -150 11 -11 34 37 35 72 0 34 2 37 30 37 l30 0 0 80 c0 73 -2 80 -20
80 -13 0 -20 7 -20 20 0 19 7 20 120 20 76 0 120 -4 120 -10 0 -7 6 -7 18 -1
11 6 24 6 33 0 11 -7 9 -9 -8 -9 -13 0 -23 -4 -23 -9 0 -9 -38 -24 -53 -22 -5
1 -6 -3 -2 -8 7 -12 -29 -33 -40 -23 -5 4 -5 2 -2 -4 3 -6 -1 -21 -10 -33 -12
-19 -17 -20 -25 -10 -8 11 -8 10 -4 -4 5 -17 -26 -82 -35 -72 -3 2 -5 -6 -6
-18 -1 -48 -4 -55 -24 -60 -11 -3 -19 -11 -18 -19 6 -47 -1 -58 -36 -58 -19 0
-35 -5 -35 -11 0 -5 -4 -7 -10 -4 -13 8 -10 22 -24 -145 -8 -91 -9 -150 -3
-157 5 -7 7 -19 4 -28 -4 -8 -1 -17 5 -21 7 -5 8 -2 3 6 -6 10 -4 12 9 7 10
-4 33 -7 52 -7 33 0 34 -1 34 -38 0 -26 7 -45 20 -57 22 -20 27 -41 8 -29 -9
5 -9 2 1 -9 7 -9 10 -17 5 -17 -5 0 -38 29 -73 65 l-63 65 -77 -63 c-80 -67
-257 -197 -266 -197 -3 0 -28 -16 -55 -35 -76 -53 -142 -77 -198 -69 -121 15
-185 27 -277 54 -143 41 -172 55 -191 93 -9 17 -22 39 -29 47 -7 8 -29 47 -49
85 -21 39 -45 78 -54 88 -13 15 -14 18 -2 15 19 -4 15 60 -6 83 -8 8 -14 23
-14 33 0 13 -5 16 -22 10 -20 -6 -21 -5 -9 9 12 15 22 8 95 -67 111 -115 223
-166 361 -166 218 0 386 99 477 281 49 97 59 142 57 247 -4 245 -191 461 -433
503 -99 17 -194 5 -279 -34 -144 -66 -255 -180 -291 -300 -3 -10 -10 -16 -16
-12 -5 3 -20 1 -32 -5 -22 -11 -22 -10 -4 4 19 15 19 20 6 93 -7 43 -15 100
-18 127 -3 33 -7 44 -13 35 -7 -12 -9 -12 -9 0 0 11 -5 10 -20 -4 -11 -10 -17
-22 -13 -28 3 -6 1 -7 -5 -3 -7 4 -12 3 -12 -2 0 -9 -145 -112 -158 -112 -4 0
-15 -7 -25 -14 -15 -12 -16 -18 -8 -35 7 -12 7 -22 2 -25 -9 -6 -27 52 -19 58
1 2 32 22 68 46 93 62 186 146 224 201 l32 48 245 6 c134 3 251 8 261 11 19 6
88 10 328 19 159 7 396 20 411 24 4 0 9 -25 12 -56z m-638 -107 c168 -45 305
-186 335 -345 51 -269 -102 -502 -365 -556 -243 -50 -463 96 -542 359 -8 24
-19 32 -74 51 -87 29 -89 30 -89 73 0 36 2 38 58 59 31 12 69 25 84 28 21 5
34 22 61 78 81 171 222 264 402 266 44 0 103 -5 130 -13z m1245 -214 c33 -14
34 -15 15 -29 -20 -16 -19 -16 28 2 6 2 21 -4 32 -13 28 -25 62 -67 47 -58
-10 6 -11 1 -6 -21 10 -40 23 -63 36 -63 6 0 3 9 -7 20 -10 11 -15 23 -12 27
9 9 14 3 32 -40 12 -30 13 -35 1 -31 -8 3 -17 1 -21 -5 -3 -7 2 -11 14 -11 18
0 21 -6 20 -37 0 -21 -4 -47 -8 -58 -8 -19 -8 -19 -18 0 -6 11 -13 44 -16 74
-4 29 -15 68 -26 86 -11 19 -18 45 -17 59 2 17 -2 26 -11 26 -8 0 -12 4 -9 8
2 4 -4 13 -14 20 -28 17 -34 -3 -7 -25 13 -10 27 -25 32 -33 8 -14 -32 15 -45
32 -3 4 -25 15 -48 26 -23 10 -40 21 -37 23 2 3 -30 2 -73 -2 -42 -5 -78 -13
-80 -18 -2 -6 -8 -11 -14 -11 -15 0 -58 -36 -86 -73 -19 -25 -23 -27 -17 -9 7
24 3 27 -25 12 -17 -9 -18 -8 -7 12 21 40 71 86 110 102 20 8 37 14 37 12 0
-1 -12 -13 -27 -27 -14 -13 -23 -18 -19 -11 4 6 3 12 -3 12 -15 0 -21 -14 -11
-30 7 -12 13 -11 32 7 17 16 46 25 108 33 75 10 85 10 96 -5 7 -9 18 -14 24
-10 7 5 1 13 -17 22 -26 14 -102 12 -155 -3 -13 -4 -16 -1 -12 10 11 28 115
27 184 -2z m-63 -154 c23 -19 53 -85 53 -116 0 -68 -46 -130 -112 -151 -75
-24 -126 0 -161 79 -36 79 -20 158 38 196 53 35 135 31 182 -8z m-2656 -186
c41 -84 79 -241 79 -324 0 -108 -21 -101 -84 27 -46 94 -71 174 -87 272 -10
69 -10 87 1 108 l13 25 24 -22 c13 -13 38 -51 54 -86z m2862 -6 c-4 -5 1 -7
12 -2 15 5 16 4 5 -9 -7 -8 -10 -15 -6 -15 13 0 -27 -63 -61 -96 -47 -46 -77
-60 -148 -72 -83 -14 -103 -12 -97 10 3 14 0 16 -24 9 -48 -13 -136 38 -113
65 7 8 7 14 -1 19 -5 3 -10 11 -10 16 0 6 6 4 13 -3 8 -7 28 -24 45 -37 17
-13 29 -28 25 -34 -4 -6 -1 -7 6 -3 20 13 83 -3 77 -19 -8 -21 19 -25 66 -10
l43 14 -50 -4 -50 -4 51 13 c28 7 57 16 63 20 6 4 18 3 28 -2 11 -7 21 -6 30
3 7 7 18 15 25 18 7 2 10 8 6 12 -4 4 -14 0 -23 -9 -9 -9 -22 -16 -28 -16 -7
0 2 13 19 28 42 37 84 100 84 126 0 17 2 18 9 6 6 -8 7 -18 4 -24z m-579 -2
c3 -8 4 -28 1 -42 -3 -15 -2 -21 1 -14 9 21 45 -38 38 -62 -4 -12 -2 -16 4
-12 12 7 62 -31 62 -47 0 -5 -6 -4 -14 2 -11 9 -13 0 -12 -59 1 -75 -13 -99
-16 -27 l-1 42 -4 -42 c-5 -54 -23 -56 -23 -3 l0 40 -40 0 c-33 0 -40 -3 -40
-20 0 -17 -7 -20 -50 -20 -29 0 -50 5 -50 11 0 5 4 8 8 5 5 -3 8 3 8 12 -2 49
17 132 30 132 8 0 14 -10 15 -22 1 -33 29 71 29 110 0 27 4 32 24 32 13 0 27
-7 30 -16z m-1457 -164 c-17 -21 -40 -48 -51 -61 -10 -13 -20 -19 -22 -14 -2
6 -19 33 -37 60 l-34 49 46 62 45 63 43 -61 42 -61 -32 -37z m2088 18 c-3 -40
-8 -113 -11 -163 -2 -49 -8 -103 -14 -120 -10 -29 -10 -29 -6 8 3 26 1 37 -9
37 -8 0 -14 -16 -16 -44 -2 -24 -1 -42 4 -39 16 10 5 -15 -15 -34 -29 -27
-141 -92 -176 -103 -15 -4 -36 -11 -46 -16 -13 -5 -17 -4 -12 4 3 6 2 13 -4
17 -5 3 -10 -3 -10 -14 0 -21 -49 -39 -71 -25 -8 4 -9 3 -5 -4 4 -8 0 -12 -11
-12 -10 0 -35 -3 -55 -6 -26 -5 -38 -3 -38 5 0 7 5 9 10 6 6 -4 19 -3 28 1 9
4 20 8 24 8 3 1 9 4 12 7 10 10 -28 7 -41 -4 -9 -6 -13 -5 -13 3 0 8 -3 10 -7
7 -3 -4 -14 10 -24 30 -9 21 -18 30 -18 21 -1 -9 4 -20 9 -23 6 -3 10 -12 10
-18 0 -7 -9 -1 -20 13 -11 14 -17 34 -15 45 3 11 2 14 -1 7 -5 -10 -9 -10 -20
-1 -16 13 -19 33 -4 24 6 -3 10 1 10 10 0 11 -7 15 -21 13 -13 -2 -27 5 -35
18 -14 20 -13 20 81 23 l95 2 0 -40 0 -40 141 -3 c106 -2 143 0 146 10 3 6 13
12 22 12 36 1 51 25 51 84 0 34 -4 56 -11 56 -7 0 -10 -20 -7 -55 2 -39 -1
-55 -9 -55 -9 0 -13 18 -13 55 l0 55 -80 0 -80 0 0 -40 0 -40 -40 0 -40 0 0
41 c0 36 -2 40 -22 37 -18 -2 -24 -11 -29 -43 l-6 -40 -2 43 c0 23 -5 42 -11
42 -5 0 -10 5 -10 10 0 6 10 10 21 10 20 0 21 4 17 60 -4 53 -2 60 14 60 10 0
18 -4 18 -8 0 -18 128 -3 191 22 9 4 16 2 16 -6 0 -7 -11 -14 -24 -14 -38 -3
-53 -12 -53 -34 0 -13 7 -20 20 -20 13 0 20 -7 20 -20 0 -17 7 -20 40 -20 l40
0 0 55 c0 30 5 55 10 55 6 0 10 -25 10 -55 0 -32 4 -55 10 -55 7 0 10 25 8 67
-3 59 -6 68 -23 71 -15 2 -17 1 -6 -6 9 -7 6 -9 -14 -9 -53 0 4 33 63 36 6 1
12 6 12 12 0 6 -7 9 -15 5 -19 -7 -19 1 -2 19 9 8 19 10 28 4 10 -6 11 -9 1
-9 -10 0 -10 -5 -1 -21 6 -12 8 -38 5 -58 -5 -30 -4 -32 4 -13 11 27 9 90 -4
111 -6 9 -3 19 9 28 11 7 15 13 11 13 -4 0 -4 5 -1 10 14 23 17 6 10 -62z
m-2139 -196 c9 -6 37 -94 40 -127 0 -5 4 -32 7 -60 4 -27 10 -72 12 -100 3
-27 6 -61 8 -75 7 -46 18 -145 21 -195 2 -27 10 -99 16 -158 11 -92 11 -110
-1 -118 -19 -12 -32 -11 -24 2 10 14 -4 119 -15 119 -5 0 -10 -30 -12 -67 l-3
-68 -44 -3 c-24 -2 -48 1 -53 6 -16 16 -10 708 7 782 17 74 19 77 41 62z m476
-641 c36 -17 70 -31 75 -31 5 0 18 -8 29 -19 11 -10 30 -23 41 -29 12 -7 25
-29 32 -58 7 -25 19 -57 28 -71 l17 -26 -34 6 c-19 2 -73 10 -120 17 -144 20
-163 28 -216 81 -26 27 -46 50 -43 52 2 2 26 2 52 -1 36 -3 47 -8 43 -18 -3
-7 8 -23 25 -35 27 -19 25 -14 -26 70 -30 51 -55 94 -55 98 0 14 92 -7 152
-36z m886 -283 c-24 -91 -19 -191 12 -250 l21 -41 -41 6 c-23 3 -44 7 -46 10
-3 2 1 26 7 52 12 47 12 49 -17 71 -28 23 -28 24 -11 53 21 36 21 45 2 65 -14
14 -14 18 0 40 15 22 71 65 86 66 3 0 -3 -33 -13 -72z m-299 12 c15 -36 34
-43 82 -30 32 9 43 8 64 -6 40 -26 48 -48 25 -69 -28 -26 -25 -46 12 -76 30
-25 31 -28 19 -58 -10 -23 -20 -31 -40 -32 -14 -1 -33 -2 -41 -3 -8 0 -24 -18
-35 -38 -18 -34 -25 -38 -72 -44 -48 -6 -54 -4 -92 26 -33 27 -46 31 -73 26
-28 -5 -39 0 -70 27 l-37 32 20 32 20 31 -32 37 c-32 36 -32 38 -16 63 13 22
25 28 69 32 48 5 54 8 68 37 16 35 26 40 81 40 29 1 37 -4 48 -27z m-523 -19
c35 -21 93 -47 129 -56 58 -16 64 -20 59 -40 -4 -17 2 -29 27 -48 32 -25 32
-25 15 -52 -16 -24 -16 -29 -2 -50 9 -13 30 -37 47 -53 l32 -30 -16 -64 c-28
-105 -47 -198 -47 -224 0 -13 -4 -24 -10 -24 -5 0 -10 7 -10 16 0 22 -44 143
-69 190 -12 21 -21 43 -21 48 0 14 -33 35 -55 36 -35 0 -42 16 -32 69 10 46 8
52 -27 117 -21 38 -60 99 -87 137 -48 66 -48 67 -23 67 14 0 54 -18 90 -39z
m1363 -88 c-33 -183 -104 -314 -193 -354 -69 -31 -109 -20 -121 32 -6 25 -4
27 37 33 124 19 243 152 263 294 4 28 10 50 15 47 4 -2 4 -26 -1 -52z m-1736
-125 c28 -48 60 -89 69 -91 23 -6 62 37 55 62 -13 51 76 79 111 34 10 -11 34
-23 54 -26 35 -5 37 -4 44 25 5 25 8 28 15 16 6 -10 4 -39 -5 -75 -29 -117
-32 -105 37 -138 58 -28 63 -34 83 -85 11 -30 28 -89 38 -130 10 -41 22 -85
27 -98 14 -35 11 -62 -6 -62 -9 0 -15 9 -15 23 0 31 -29 129 -42 142 -11 11
-5 -84 8 -138 3 -15 2 -27 -3 -27 -10 0 -33 92 -33 130 0 14 5 32 10 40 7 11
-2 21 -44 45 -28 16 -65 40 -81 53 -15 12 -30 20 -33 18 -2 -3 -6 -27 -7 -54
-1 -27 -11 -64 -21 -83 -10 -19 -17 -38 -15 -44 2 -5 9 -31 16 -58 12 -42 12
-47 -4 -47 -11 0 -20 15 -28 50 -7 27 -30 89 -53 137 l-41 88 22 48 23 48 -24
17 c-13 9 -49 31 -79 47 -48 26 -61 40 -104 115 -26 47 -58 95 -70 108 -18 20
-19 24 -7 32 18 12 32 -5 103 -122z m1177 -114 c0 -3 -11 -20 -24 -37 -13 -18
-27 -43 -31 -57 -15 -50 -54 -100 -78 -100 -13 0 -30 -12 -42 -30 -41 -61
-148 -119 -266 -145 -59 -13 -92 -5 -83 19 3 7 22 13 45 14 43 2 161 48 212
84 18 12 51 39 74 60 24 21 49 38 56 38 8 0 35 36 61 80 25 44 53 80 61 80 8
0 15 -3 15 -6z m-90 -409 c62 -17 130 -19 177 -6 24 7 35 6 44 -5 6 -8 10 -16
8 -19 -3 -2 -37 -10 -77 -16 -63 -10 -83 -10 -144 5 -40 10 -80 22 -89 26 -10
6 -30 5 -50 -1 -48 -14 -218 -22 -254 -11 -24 7 -12 10 75 21 58 7 123 17 145
21 47 10 89 6 165 -15z"/>
<path d="M1528 3684 c-9 -10 -38 -17 -69 -20 -196 -12 -230 -21 -215 -59 4
-12 27 -14 135 -11 117 3 132 2 147 -15 34 -37 104 1 104 57 0 54 -65 85 -102
48z"/>
<path d="M2238 2779 c-43 -10 -95 -27 -116 -38 -53 -27 -140 -124 -171 -191
-23 -48 -26 -68 -26 -156 0 -57 5 -111 12 -125 6 -13 19 -41 29 -62 30 -67 99
-134 182 -174 72 -36 81 -38 172 -37 86 0 103 4 168 34 142 65 221 183 230
345 4 85 3 95 -28 168 -78 187 -261 283 -452 236z m209 -137 c150 -76 203
-244 128 -401 -32 -65 -54 -92 -98 -117 -65 -37 -98 -47 -165 -50 -88 -4 -157
22 -217 81 -89 90 -117 245 -63 350 83 161 255 217 415 137z"/>
<path d="M2224 2606 c-62 -20 -110 -62 -140 -122 -22 -46 -26 -64 -22 -123 3
-59 9 -77 38 -120 86 -127 279 -139 381 -24 43 50 59 92 59 158 0 169 -155
281 -316 231z m95 -80 c82 -30 126 -146 84 -225 -25 -47 -84 -92 -126 -96
-109 -10 -177 57 -179 175 -1 71 22 108 84 139 48 23 86 25 137 7z"/>
<path d="M2725 987 c-81 -27 -121 -82 -106 -148 37 -163 293 -156 309 9 4 46
2 52 -32 89 -45 50 -113 70 -171 50z m114 -43 c63 -31 82 -96 41 -140 -19 -19
-33 -24 -72 -24 -82 0 -138 46 -138 114 0 57 97 86 169 50z"/>
<path d="M2067 783 c-4 -3 -7 -16 -7 -28 0 -12 -9 -34 -20 -48 l-21 -26 23
-12 c37 -19 68 -51 68 -71 0 -10 -9 -36 -20 -58 l-20 -39 27 -50 c14 -28 29
-51 34 -51 27 0 40 183 14 194 -17 6 -20 32 -5 41 15 9 42 -15 36 -32 -8 -19
60 -83 123 -116 l53 -27 -6 24 c-16 66 -26 77 -91 106 -70 31 -72 35 -56 103
8 31 6 39 -9 47 -10 6 -28 10 -39 10 -11 0 -25 9 -31 20 -10 19 -40 27 -53 13z"/>
<path d="M4488 4498 c-104 -116 -198 -233 -198 -245 0 -6 14 -23 31 -37 35
-29 30 -31 105 34 22 19 86 73 142 120 56 47 105 95 108 108 5 18 -2 32 -32
63 -21 22 -48 39 -60 39 -15 0 -46 -27 -96 -82z"/>
<path d="M4564 4100 c-93 -3 -157 -9 -164 -16 -16 -16 -8 -95 10 -105 23 -12
439 -26 451 -14 11 11 12 115 0 133 -5 9 -28 12 -76 10 -38 -2 -137 -5 -221
-8z"/>
<path d="M4315 3840 c-25 -26 -26 -31 -14 -47 26 -33 181 -217 219 -260 25
-28 46 -43 62 -43 27 0 98 66 98 92 0 8 -33 44 -72 80 -121 107 -245 208 -255
208 -5 0 -22 -13 -38 -30z"/>
<path d="M4076 3761 c-3 -5 -8 -89 -11 -187 -3 -99 -8 -198 -11 -221 -4 -35
-2 -44 15 -52 45 -25 149 -6 137 24 -3 8 -8 105 -11 217 -4 112 -8 209 -10
216 -5 14 -101 17 -109 3z"/>
</g>
</svg>
