<?xml version="1.0" standalone="no"?>
<!DOCTYPE svg PUBLIC "-//W3C//DTD SVG 20010904//EN"
 "http://www.w3.org/TR/2001/REC-SVG-20010904/DTD/svg10.dtd">
<svg version="1.0" xmlns="http://www.w3.org/2000/svg"
 width="247.000000pt" height="300.000000pt" viewBox="0 0 247.000000 300.000000"
 preserveAspectRatio="xMidYMid meet">

<g transform="translate(0.000000,300.000000) scale(0.100000,-0.100000)"
fill="#000000" stroke="none">
<path d="M1161 2978 c-5 -13 -18 -68 -31 -123 -29 -135 -32 -141 -73 -149 -47
-9 -120 -59 -169 -117 -23 -27 -44 -49 -48 -49 -3 0 -11 55 -18 122 -6 66 -16
126 -21 131 -13 13 -58 -9 -72 -34 -5 -10 -14 -108 -21 -218 -6 -111 -14 -199
-16 -196 -5 5 -99 244 -160 408 -20 53 -46 109 -57 123 l-21 26 -18 -27 c-29
-44 -21 -105 38 -315 31 -107 61 -231 67 -275 6 -44 19 -98 29 -120 11 -25 21
-88 28 -170 12 -157 22 -181 79 -206 24 -10 43 -22 43 -26 0 -4 -21 -20 -48
-34 -33 -19 -53 -24 -68 -19 -11 5 -56 13 -100 20 -43 6 -87 13 -96 16 -24 7
-23 51 2 139 11 38 20 82 20 97 0 58 -93 79 -117 27 -7 -14 -24 -69 -38 -122
-14 -53 -36 -115 -49 -139 -31 -56 -86 -249 -86 -303 0 -33 7 -50 35 -82 19
-23 35 -51 35 -62 0 -12 -16 -53 -36 -91 -29 -54 -38 -84 -42 -138 l-4 -69 49
-50 c41 -41 63 -54 122 -72 59 -18 72 -25 67 -39 -3 -9 -11 -37 -18 -61 -7
-24 -28 -59 -45 -76 -28 -28 -33 -40 -33 -81 0 -27 -9 -69 -20 -93 -11 -24
-20 -51 -20 -60 0 -10 -11 -23 -25 -29 -35 -16 -114 -90 -141 -134 -34 -53
-65 -150 -53 -165 6 -6 25 -15 42 -18 18 -4 67 -17 109 -31 l77 -23 168 33
c93 18 179 38 192 45 14 8 37 10 58 6 24 -4 57 1 111 19 42 14 155 45 250 69
123 31 179 50 196 66 l24 23 21 -57 c41 -110 46 -115 99 -115 42 0 56 -7 127
-60 145 -108 132 -105 405 -91 129 7 239 16 243 20 5 5 7 41 5 80 l-3 71 27 0
c15 0 34 8 44 17 11 11 29 16 54 14 88 -6 138 98 107 224 -17 69 -45 118 -77
135 -14 8 -18 18 -13 43 12 75 -37 166 -102 187 -26 8 -35 17 -35 33 0 12 -11
45 -24 73 -21 45 -29 52 -60 58 -21 4 -57 4 -81 0 -43 -6 -45 -5 -45 19 0 37
-18 78 -46 108 l-24 25 31 77 32 77 81 -7 c112 -11 178 -9 215 7 24 10 35 10
44 1 17 -17 62 -13 89 9 19 14 27 32 32 72 3 29 9 75 12 102 5 37 3 57 -10 81
-17 32 -17 35 7 116 14 46 37 129 51 184 l25 99 -30 53 c-24 42 -36 53 -63 59
-19 3 -48 20 -67 40 -18 18 -47 39 -66 45 -18 6 -41 23 -52 38 -14 19 -39 33
-81 46 -33 10 -64 23 -69 29 -4 6 -5 43 0 81 7 72 4 111 -13 156 -8 22 -3 47
22 125 54 168 58 237 20 294 -18 26 -54 -28 -90 -133 -39 -113 -91 -222 -105
-221 -5 0 -24 -2 -41 -6 l-32 -7 -6 51 c-3 28 -6 81 -6 118 0 58 -3 69 -22 82
-33 23 -65 20 -71 -6 -3 -13 -9 -62 -13 -110 l-7 -87 -45 40 c-25 22 -79 55
-119 75 -53 25 -74 40 -77 57 -3 12 -14 69 -25 126 -11 57 -26 108 -33 112 -7
5 -57 9 -111 9 -92 0 -98 -1 -106 -22z m193 -26 c4 -7 86 -408 86 -422 0 -4
-39 -31 -86 -59 l-86 -53 -37 17 c-21 9 -57 33 -80 53 l-43 37 22 125 c21 128
56 285 66 301 6 11 151 12 158 1z m706 -157 c0 -19 -13 -75 -30 -125 -16 -50
-30 -101 -30 -115 0 -25 -13 -31 -44 -19 -9 3 -16 10 -16 16 0 18 105 278 112
278 5 0 8 -16 8 -35z m-1485 -270 l104 -270 -27 -22 c-15 -13 -32 -23 -37 -23
-6 0 -27 66 -48 148 -20 81 -50 197 -66 258 -27 104 -47 212 -36 189 3 -5 52
-131 110 -280z m1183 30 c0 -77 -5 -192 -12 -255 l-11 -115 -29 -3 c-15 -2
-26 0 -23 5 3 5 15 124 27 264 11 139 23 265 27 279 l6 25 7 -30 c4 -16 8 -93
8 -170z m-969 83 c10 -85 19 -202 36 -460 l7 -98 59 -12 59 -12 0 -91 c0 -89
-1 -92 -25 -103 -36 -16 -35 -17 -35 30 0 37 -6 46 -59 98 -56 53 -60 60 -66
116 -4 32 -13 82 -19 109 -10 39 -10 99 0 275 7 124 13 228 13 233 1 4 5 7 10
7 5 0 14 -42 20 -92z m297 20 c-3 -13 -9 -47 -12 -76 -7 -50 -8 -53 -52 -72
-25 -11 -64 -38 -87 -59 -23 -21 -52 -44 -64 -50 -19 -11 -21 -9 -21 21 0 43
40 126 76 160 31 29 142 98 157 98 5 0 7 -10 3 -22z m461 -22 c88 -45 123 -98
123 -189 l0 -51 -20 21 c-29 32 -83 71 -125 92 -35 17 -40 24 -56 87 -10 38
-19 72 -19 76 0 9 34 -3 97 -36z m394 -146 c23 -6 40 -19 47 -36 17 -36 15
-151 -3 -212 l-16 -52 -47 0 c-56 0 -112 15 -124 32 -24 39 -1 223 33 265 13
15 60 17 110 3z m-807 -38 l66 -38 -105 -26 c-86 -22 -145 -44 -227 -86 -22
-11 -3 33 30 70 32 36 145 118 164 118 3 0 36 -17 72 -38z m369 27 c39 -21
147 -111 158 -131 16 -30 4 -33 -49 -10 -70 30 -191 62 -236 62 -33 0 -37 2
-26 15 18 22 101 75 117 75 8 0 24 -5 36 -11z m-193 -228 c15 -29 13 -30 -27
-26 -25 2 -37 8 -35 17 8 31 47 37 62 9z m-195 0 l40 -8 -56 -25 c-31 -14 -70
-29 -86 -32 -40 -9 -85 9 -81 31 7 38 87 53 183 34z m477 -15 c4 -6 0 -19 -9
-28 -23 -26 -81 -23 -149 9 -48 22 -55 28 -39 34 28 10 189 -2 197 -15z m-881
-62 c4 -16 9 -52 12 -81 4 -52 4 -53 -29 -63 -34 -11 -34 -12 -34 -72 0 -56 2
-63 35 -92 33 -31 45 -56 26 -56 -17 0 -59 40 -69 67 -17 44 -32 141 -32 211
0 57 3 66 30 94 35 35 51 33 61 -8z m479 31 c0 -3 -31 -20 -69 -40 -38 -19
-72 -39 -76 -45 -10 -16 -25 -12 -18 6 3 9 38 31 77 50 69 33 86 39 86 29z
m231 -35 c24 -16 50 -30 57 -30 6 0 12 -7 12 -16 0 -9 -5 -12 -12 -8 -76 46
-128 84 -116 84 8 0 35 -13 59 -30z m706 -7 c34 -20 43 -31 43 -53 0 -27 -54
-227 -64 -237 -3 -3 -22 1 -43 10 l-38 15 -3 138 c-1 76 0 144 3 152 7 18 44
9 102 -25z m-877 -149 l0 -167 -80 5 c-45 3 -85 9 -89 14 -5 5 -15 51 -22 102
-12 88 -12 93 7 112 19 19 161 99 177 100 4 0 7 -75 7 -166z m648 149 c68 -4
82 -8 78 -20 -3 -8 -6 -22 -6 -30 0 -13 -11 -15 -71 -11 -75 6 -121 28 -128
63 -2 15 1 16 20 10 13 -4 61 -10 107 -12z m-505 -43 c72 -43 77 -47 77 -80 0
-79 -10 -106 -44 -118 -31 -12 -56 -46 -56 -78 0 -11 -9 -14 -37 -12 l-38 3
-3 125 c-3 128 4 214 17 208 4 -2 42 -23 84 -48z m-434 34 c25 -5 31 -12 31
-31 0 -25 -2 -25 -55 -21 -65 5 -70 9 -55 37 11 22 27 25 79 15z m660 -8 c9
-11 3 -17 -30 -30 -51 -21 -73 -8 -44 24 21 23 57 26 74 6z m84 -83 c-3 -43
-6 -79 -7 -79 0 -1 -12 -5 -25 -9 -23 -7 -24 -6 -18 34 4 35 43 131 52 131 2
0 1 -35 -2 -77z m568 4 c35 -27 36 -30 28 -67 -7 -30 -55 -154 -65 -168 -2 -2
-19 1 -38 8 -22 7 -36 18 -36 28 -1 41 54 240 64 235 6 -4 27 -20 47 -36z
m-385 3 c58 0 70 -13 29 -32 -38 -17 -135 6 -135 32 0 17 4 18 26 10 14 -6 50
-10 80 -10z m-270 -29 c-3 -22 -11 -52 -17 -68 -8 -22 -12 -24 -20 -13 -11 18
0 102 15 112 23 15 28 7 22 -31z m-597 -63 c7 -46 14 -91 17 -100 4 -14 -1
-18 -20 -18 l-26 0 0 100 c0 55 4 100 8 100 5 0 14 -37 21 -82z m509 20 c-2
-38 -8 -63 -15 -66 -14 -4 -17 29 -7 91 10 60 25 43 22 -25z m236 15 c4 -5 42
-12 84 -18 71 -9 77 -12 86 -38 12 -34 -2 -47 -54 -47 -98 0 -113 10 -135 88
-6 21 4 30 19 15z m-1384 -46 c0 -19 -7 -56 -15 -83 -8 -27 -15 -59 -15 -71 0
-18 -6 -23 -25 -23 -33 0 -33 1 11 158 17 61 44 73 44 19z m423 2 c33 -27 37
-36 37 -76 0 -53 -22 -56 -30 -3 -4 26 -16 42 -47 65 -23 16 -42 33 -42 38 -2
18 48 4 82 -24z m1184 -41 c-2 -13 -4 -3 -4 22 0 25 2 35 4 23 2 -13 2 -33 0
-45z m396 42 c16 -23 9 -82 -17 -144 -15 -35 -28 -42 -60 -30 -22 8 -20 27 11
117 27 79 42 92 66 57z m-1635 -43 c12 -11 22 -27 22 -34 0 -10 -7 -12 -22 -8
-30 9 -34 14 -42 48 -7 32 1 30 42 -6z m977 -7 c15 -30 15 -30 -21 -45 -34
-14 -37 -14 -55 8 -10 12 -18 25 -19 28 0 5 59 34 77 38 1 1 9 -12 18 -29z
m-119 -51 l29 -31 -76 7 c-61 5 -78 4 -88 -9 -11 -13 -8 -16 16 -23 15 -4 54
-8 85 -8 64 1 65 -2 31 -67 -15 -32 -13 -31 -83 -18 -100 19 -141 73 -107 140
11 22 20 26 87 31 41 3 75 6 76 7 0 1 13 -12 30 -29z m352 -40 c46 -44 48 -56
11 -103 -17 -22 -28 -26 -73 -26 -65 0 -119 17 -112 36 3 7 11 40 18 74 l12
60 51 0 c45 0 55 -5 93 -41z m99 3 c-23 -5 -47 4 -47 17 0 6 13 5 33 -2 23 -8
27 -12 14 -15z m-287 11 c0 -5 -6 -28 -14 -53 -13 -43 -14 -44 -59 -47 -51 -3
-56 3 -38 50 13 33 111 78 111 50z m-592 -37 c96 -8 176 -17 179 -20 18 -17
-21 -18 -150 -2 -78 10 -158 16 -177 15 -33 -4 -36 -7 -44 -50 -9 -46 7 -202
24 -228 15 -24 475 -93 516 -77 11 4 14 31 14 121 0 75 4 114 10 110 12 -8 14
-265 1 -265 -4 0 -91 13 -192 29 -101 16 -215 32 -254 35 -142 13 -133 8 -139
79 -3 34 -8 110 -10 169 l-6 107 28 -4 c15 -3 105 -12 200 -19z m-255 -103 c4
-58 7 -130 7 -159 l0 -54 -77 -39 c-43 -22 -123 -66 -178 -99 -55 -33 -102
-58 -104 -56 -9 9 -31 176 -30 239 1 90 17 58 18 -35 1 -64 13 -122 30 -149
14 -21 77 6 210 90 109 69 111 71 111 107 0 67 -19 205 -30 216 -7 7 -24 6
-55 -5 -25 -9 -45 -15 -45 -13 0 6 114 63 126 64 7 0 13 -39 17 -107z m1267
97 c13 -9 13 -10 0 -10 -8 0 -22 5 -30 10 -13 9 -13 10 0 10 8 0 22 -5 30 -10z
m-64 -24 c11 -8 37 -19 59 -25 22 -6 51 -20 65 -31 l25 -20 -35 -30 c-26 -23
-44 -30 -75 -30 -41 1 -150 42 -150 57 1 4 7 27 14 51 13 37 17 42 45 42 18 0
41 -6 52 -14z m-1808 -23 c-10 -2 -26 -2 -35 0 -10 3 -2 5 17 5 19 0 27 -2 18
-5z m982 -13 c57 -6 104 -19 142 -37 l57 -28 0 -97 c1 -54 -1 -98 -3 -98 -13
0 -407 51 -428 55 -33 8 -36 15 -44 125 l-7 90 99 0 c54 0 137 -5 184 -10z
m1075 -12 c-4 -13 -9 -32 -12 -43 -3 -11 -28 -78 -56 -148 -48 -121 -53 -130
-91 -149 -73 -37 -132 -35 -326 15 -96 25 -193 52 -215 60 -55 19 -76 61 -73
147 l3 65 54 13 c50 12 60 12 116 -7 34 -12 74 -21 90 -21 16 0 78 -14 139
-31 144 -41 229 -39 277 6 17 17 42 49 56 73 27 45 49 56 38 20z m-1515 -50
c0 -24 3 -66 6 -94 l6 -50 -93 -56 c-118 -69 -159 -91 -166 -84 -3 2 -9 47
-13 98 -8 88 -7 94 13 111 29 23 215 117 233 117 10 0 14 -13 14 -42z m-590
28 c0 -2 -7 -19 -15 -38 -8 -20 -24 -75 -36 -124 -26 -108 -44 -134 -35 -52 9
82 54 218 71 218 8 0 15 -2 15 -4z m224 -19 l79 -13 -43 -27 -42 -28 7 -62 c3
-34 11 -97 17 -140 6 -43 9 -80 7 -82 -2 -2 -42 7 -89 19 -47 13 -111 26 -144
30 l-58 8 4 46 c7 70 58 219 84 247 20 21 29 24 61 19 21 -3 73 -11 117 -17z
m181 -3 c-26 -20 -55 -36 -55 -30 0 5 63 46 70 46 3 -1 -4 -8 -15 -16z m495
-248 c222 -31 373 -62 419 -86 44 -23 37 -26 -15 -4 -80 34 -374 77 -374 55 0
-7 -24 -11 -62 -11 -35 0 -115 -9 -178 -19 -114 -18 -195 -18 -184 1 11 17
167 88 193 88 15 0 105 -11 201 -24z m465 0 c20 -14 52 -49 72 -80 20 -30 47
-60 60 -67 27 -14 32 -32 6 -21 -10 4 -55 36 -100 72 -67 53 -83 70 -83 93 0
15 2 27 5 27 2 0 20 -11 40 -24z m721 -30 c-9 -35 -66 -49 -66 -15 0 10 62 51
68 44 3 -2 2 -15 -2 -29z m-466 -46 c127 -36 219 -47 279 -30 48 13 60 8 40
-16 -12 -15 -34 -16 -209 -10 l-195 7 -27 32 c-51 57 -37 60 112 17z m-450
-17 c102 -16 178 -50 238 -104 32 -29 33 -31 18 -55 -9 -13 -20 -24 -25 -24
-20 0 -151 64 -151 74 0 6 7 20 15 30 19 25 19 36 0 36 -11 0 -38 -31 -50 -57
0 -1 -19 4 -40 11 -22 8 -69 17 -105 21 -87 10 -100 18 -100 61 l0 36 53 -7
c28 -3 95 -13 147 -22z m-1060 -13 l25 -8 -25 0 c-14 0 -38 4 -55 8 l-30 8 30
0 c17 0 41 -4 55 -8z m428 -65 c2 -50 2 -50 -45 -80 -98 -61 -89 -61 -107 -7
-15 44 -15 48 2 71 23 31 100 73 127 69 17 -3 20 -11 23 -53z m52 33 c0 -19
-2 -20 -10 -8 -13 19 -13 30 0 30 6 0 10 -10 10 -22z m1465 12 c-3 -5 -15 -10
-25 -10 -10 0 -22 5 -25 10 -4 6 7 10 25 10 18 0 29 -4 25 -10z m-1296 -89 c1
-24 -2 -42 -5 -38 -12 12 -24 90 -18 111 7 20 8 20 15 -4 4 -14 7 -45 8 -69z
m-674 64 l50 -14 -50 5 c-28 3 -63 0 -79 -6 -32 -12 -41 -8 -33 15 8 18 43 18
112 0z m160 5 c-3 -5 -12 -7 -20 -3 -21 7 -19 13 6 13 11 0 18 -4 14 -10z
m-78 -26 c-3 -3 -12 -4 -19 -1 -8 3 -5 6 6 6 11 1 17 -2 13 -5z m165 -16 c-7
-7 -12 -8 -12 -2 0 14 12 26 19 19 2 -3 -1 -11 -7 -17z m638 -19 c0 -11 -4
-19 -9 -19 -10 0 -21 24 -21 47 0 13 3 13 15 3 8 -7 15 -21 15 -31z m-376 -12
c5 -27 4 -37 -3 -32 -6 3 -11 22 -11 42 0 44 5 41 14 -10z m-454 13 c36 -1 41
-15 21 -61 -12 -24 -21 -62 -21 -84 0 -22 -4 -46 -9 -54 -5 -8 -5 -21 0 -30 8
-15 30 -114 26 -117 -1 -1 -39 7 -84 18 -76 18 -85 23 -133 74 -50 53 -51 56
-45 97 18 111 95 174 195 162 19 -3 42 -5 50 -5z m965 1 l40 -9 -45 -1 c-25
-1 -55 -4 -67 -7 -17 -5 -23 -2 -23 10 0 18 30 20 95 7z m217 -71 c55 -25 198
-148 198 -169 0 -8 12 -27 27 -43 39 -41 24 -42 -33 -2 -66 48 -108 64 -163
64 -60 0 -113 -18 -286 -97 -77 -35 -145 -66 -150 -69 -6 -2 -18 17 -28 43
-30 83 -30 83 -141 74 -108 -9 -143 -26 -159 -77 -5 -16 -11 -30 -12 -32 -1
-1 -16 3 -34 9 -22 8 -30 16 -27 28 3 9 8 33 11 53 7 36 6 37 -32 47 -50 14
-83 14 -83 -1 0 -6 18 -33 41 -60 22 -26 34 -48 27 -48 -20 1 -156 35 -162 41
-3 3 2 32 10 64 16 61 47 115 66 115 6 0 4 -8 -5 -18 -10 -10 -17 -24 -17 -30
0 -17 48 -38 101 -46 l46 -7 7 47 c3 25 4 50 1 54 -8 13 13 17 210 44 206 28
381 43 305 25 -25 -6 -49 -15 -54 -19 -5 -5 -5 -29 -2 -54 l7 -45 84 30 c47
16 94 29 105 29 31 0 28 58 -2 64 -60 13 -57 15 17 12 56 -3 95 -10 127 -26z
m-1121 -26 c-10 -22 -17 -30 -19 -21 -4 18 15 57 27 57 5 0 1 -16 -8 -36z m66
14 c26 -29 46 -68 39 -76 -3 -3 -6 0 -6 6 0 7 -16 30 -36 52 -20 22 -32 40
-27 40 5 0 19 -10 30 -22z m273 12 c-20 -13 -33 -13 -25 0 3 6 14 10 23 10 15
0 15 -2 2 -10z m-286 -62 c9 -12 16 -31 16 -41 0 -17 -1 -17 -30 0 -32 18 -34
22 -24 47 8 22 20 20 38 -6z m-64 -65 c0 -5 -5 -15 -10 -23 -8 -12 -10 -11
-10 8 0 12 5 22 10 22 6 0 10 -3 10 -7z m74 -39 c19 -7 22 -44 4 -44 -18 1
-48 25 -48 39 0 12 19 14 44 5z m1155 -35 c21 -6 48 -19 61 -29 l25 -18 -25
-6 c-14 -3 -79 -15 -145 -26 -66 -12 -165 -32 -220 -45 -112 -28 -138 -30
-133 -13 5 14 172 90 273 124 79 26 112 29 164 13z m-647 -78 c-7 -76 6 -142
29 -148 10 -3 19 -10 19 -15 0 -15 -154 -6 -173 11 -13 10 -17 31 -17 91 0 88
-1 87 90 100 30 4 55 8 56 9 1 0 -1 -21 -4 -48z m996 43 c24 -5 33 -15 46 -48
23 -59 21 -64 -25 -77 -37 -12 -42 -11 -52 7 -6 10 -28 37 -50 59 -36 36 -37
40 -21 52 19 14 54 16 102 7z m-1528 -14 c0 -5 -4 -10 -10 -10 -5 0 -10 5 -10
10 0 6 5 10 10 10 6 0 10 -4 10 -10z m613 -32 c8 -24 23 -64 33 -90 10 -26 15
-50 11 -55 -5 -4 -25 2 -45 14 -34 19 -37 25 -40 74 -3 58 4 99 17 99 5 0 15
-19 24 -42z m789 -25 c66 -71 169 -259 201 -370 l16 -53 -25 0 c-29 0 -58 14
-97 46 -17 15 -42 24 -62 24 -30 0 -33 3 -44 44 -6 25 -15 47 -20 50 -10 6
-264 -19 -341 -35 -117 -23 -131 -29 -125 -49 7 -24 -24 -98 -53 -123 -14 -13
-32 -17 -59 -15 l-38 3 -23 100 c-12 55 -25 133 -29 173 -5 61 -3 75 12 92 25
28 35 25 35 -9 0 -33 38 -161 47 -161 4 0 72 13 152 30 152 30 406 70 454 70
15 0 27 5 27 11 0 7 -20 49 -45 95 -25 45 -45 87 -45 93 0 21 36 11 62 -16z
m-1149 -20 c86 -23 97 -29 97 -49 l0 -22 -57 18 c-32 10 -92 23 -133 30 -101
16 -99 16 -93 40 5 20 10 21 47 16 23 -4 85 -19 139 -33z m-344 -38 c-34 -48
-45 -51 -35 -11 7 30 32 56 52 56 11 0 6 -13 -17 -45z m76 -5 c4 -6 -14 -32
-40 -58 -61 -60 -75 -81 -75 -109 0 -20 5 -23 40 -23 21 0 74 -11 117 -25 103
-33 111 -32 118 8 5 21 17 39 38 52 18 11 41 39 52 62 13 27 27 42 39 43 13 0
16 -5 11 -17 -4 -10 -9 -32 -12 -48 -3 -20 -15 -36 -32 -46 -23 -14 -30 -28
-44 -95 -9 -43 -19 -99 -23 -124 l-7 -44 -33 39 c-18 22 -34 53 -36 69 -3 27
-10 32 -78 56 -41 15 -94 30 -117 34 -40 6 -42 5 -48 -23 -5 -22 -13 -30 -37
-35 -17 -3 -33 -5 -35 -3 -1 2 9 45 25 95 23 78 31 93 53 101 15 5 44 30 65
55 40 48 48 53 59 36z m397 -87 c32 -21 55 -27 133 -34 94 -8 122 -16 142 -41
13 -15 43 -181 43 -237 0 -54 -29 -74 -143 -101 -51 -12 -139 -35 -196 -51
-135 -38 -133 -38 -125 10 5 31 2 46 -15 69 -26 37 -26 44 1 167 19 84 27 105
54 130 21 20 34 44 39 73 4 23 12 42 18 42 6 0 28 -12 49 -27z m-425 -266 c46
-12 83 -25 83 -29 0 -13 -35 -9 -74 7 -19 8 -58 20 -86 26 -27 6 -53 15 -56
21 -8 12 5 10 133 -25z m1203 11 c-94 -16 -102 -18 -97 -31 4 -13 99 -13 295
-1 78 4 102 9 102 20 0 21 15 17 51 -13 26 -22 59 -76 59 -98 0 -3 -69 -5
-152 -6 -84 0 -191 -4 -238 -8 l-85 -8 -60 58 c-38 38 -56 62 -50 68 12 12
122 29 185 28 l45 0 -55 -9z m-1371 -17 c9 -16 7 -17 -14 -13 -34 6 -33 18 2
31 1 1 7 -7 12 -18z m1258 -145 c8 -16 19 -58 24 -95 5 -36 11 -76 14 -88 8
-34 -7 -28 -67 23 -29 25 -65 52 -80 60 -22 11 -28 24 -38 84 -12 71 -8 113
12 138 9 10 23 2 65 -40 30 -29 61 -66 70 -82z m-1209 64 c53 -12 65 -23 36
-34 -28 -11 -56 -7 -141 21 l-83 27 27 21 26 22 41 -22 c23 -13 65 -28 94 -35z
m270 28 c6 -8 8 -45 4 -91 -4 -65 -8 -81 -26 -92 -27 -18 -172 -53 -254 -61
l-64 -7 22 42 c33 66 105 128 205 177 101 49 99 49 113 32z m-153 -8 c3 -5 1
-10 -4 -10 -6 0 -11 5 -11 10 0 6 2 10 4 10 3 0 8 -4 11 -10z m1700 -85 c8
-62 1 -80 -21 -51 -19 27 -19 106 0 106 10 0 17 -17 21 -55z m-1936 20 c45
-14 81 -30 81 -36 0 -14 -80 -159 -88 -159 -3 0 -44 12 -90 27 -82 27 -83 28
-78 56 8 38 68 136 83 137 7 0 48 -11 92 -25z m1139 -58 c15 -53 10 -67 -16
-51 -19 12 -45 81 -36 95 14 23 39 2 52 -44z m717 32 c2 -2 6 -55 10 -116 l8
-113 -230 0 -230 0 -16 75 c-10 42 -17 89 -17 104 0 27 3 30 53 36 130 18 409
27 422 14z m-1384 -66 c-9 -15 -10 -13 -11 13 0 17 3 34 8 38 11 12 14 -32 3
-51z"/>
<path d="M1205 2929 c-10 -16 -75 -327 -75 -359 0 -41 92 -120 139 -120 31 0
129 65 143 95 8 17 6 44 -6 101 -9 44 -23 114 -31 157 -23 123 -29 131 -102
135 -39 2 -64 -1 -68 -9z m119 -51 c15 -57 11 -61 -50 -55 -31 3 -57 7 -59 9
-1 2 0 18 2 36 5 31 7 32 53 32 41 0 49 -3 54 -22z m9 -100 c9 -7 19 -25 22
-39 l7 -27 -82 -7 c-45 -4 -84 -5 -87 -2 -3 3 -2 24 2 46 l7 41 57 0 c31 0 65
-6 74 -12z m31 -130 c3 -7 7 -25 10 -41 l6 -27 -105 2 c-58 1 -105 5 -105 9 0
4 3 21 6 38 l7 31 89 0 c62 0 90 -4 92 -12z m-30 -107 l30 -6 -43 -28 c-24
-16 -49 -26 -59 -22 -18 6 -72 51 -72 60 0 7 107 4 144 -4z"/>
<path d="M970 1125 c-58 -8 -108 -14 -112 -14 -9 -1 -10 -96 -2 -129 4 -14 12
-21 20 -18 8 3 85 11 172 18 86 6 160 16 164 22 4 6 8 39 8 74 l0 62 -72 -1
c-40 -1 -120 -7 -178 -14z"/>
<path d="M1361 1071 c-37 -16 -68 -35 -72 -47 -12 -30 -10 -94 2 -94 13 0 159
150 159 162 0 13 -21 8 -89 -21z"/>
<path d="M1895 403 c-185 -11 -305 -26 -305 -39 0 -22 36 -25 232 -16 197 8
235 17 194 48 -11 8 -31 13 -45 12 -14 -1 -48 -3 -76 -5z"/>
</g>
</svg>
